<?xml version="1.0" encoding="UTF-8"?>
<svg xmlns="http://www.w3.org/2000/svg" xmlns:xlink="http://www.w3.org/1999/xlink" width="141pt" height="141pt" viewBox="0 0 141 141" version="1.1">
<g id="surface1">
<path style=" stroke:none;fill-rule:nonzero;fill:rgb(24.705882%,32.156863%,32.941176%);fill-opacity:1;" d="M 91.265625 132.1875 C 88.734375 130.21875 88.59375 126.84375 90.914062 124.382812 C 92.53125 122.695312 92.53125 122.695312 91.125 120.796875 C 89.789062 118.898438 89.789062 118.757812 91.125 110.953125 L 92.460938 103.007812 L 99.351562 102.585938 L 98.929688 105.960938 C 98.71875 107.789062 98.296875 110.8125 98.015625 112.640625 C 97.59375 115.453125 97.734375 116.085938 98.789062 116.4375 C 101.179688 117.421875 102.234375 115.734375 103.359375 109.265625 L 104.484375 103.007812 L 107.15625 102.796875 C 111.796875 102.375 111.796875 102.164062 109.617188 114.117188 C 107.507812 125.859375 106.804688 127.898438 103.429688 131.0625 C 101.671875 132.75 100.476562 133.171875 97.242188 133.453125 C 93.867188 133.664062 92.8125 133.453125 91.265625 132.1875 Z M 98.71875 127.546875 C 99.84375 127.125 101.671875 122.554688 100.96875 121.851562 C 100.40625 121.289062 97.03125 123.609375 96.539062 124.875 C 96.1875 125.859375 96.679688 127.96875 97.3125 127.96875 C 97.453125 127.96875 98.085938 127.757812 98.71875 127.546875 Z M 98.71875 127.546875 "/>
<path style=" stroke:none;fill-rule:nonzero;fill:rgb(24.705882%,32.156863%,32.941176%);fill-opacity:1;" d="M 32.34375 122.132812 C 31.078125 121.5 30.515625 120.585938 30.375 118.757812 C 30.234375 116.71875 32.203125 103.710938 34.171875 94.078125 C 34.523438 92.25 34.804688 92.109375 38.039062 92.109375 C 39.9375 92.109375 41.484375 92.179688 41.484375 92.320312 C 41.484375 92.390625 40.5 97.875 39.375 104.414062 C 38.25 111.023438 37.265625 116.4375 37.265625 116.578125 C 37.265625 116.648438 37.898438 116.71875 38.671875 116.71875 C 39.796875 116.71875 40.078125 117.210938 40.078125 119.109375 C 40.078125 121.148438 39.796875 121.640625 37.898438 122.273438 C 35.085938 123.257812 34.523438 123.257812 32.34375 122.132812 Z M 32.34375 122.132812 "/>
<path style=" stroke:none;fill-rule:nonzero;fill:rgb(24.705882%,32.156863%,32.941176%);fill-opacity:1;" d="M 45.28125 122.0625 C 41.976562 120.585938 41.484375 118.054688 42.960938 110.953125 C 43.523438 108.351562 44.507812 106.523438 46.125 104.90625 C 48.375 102.65625 48.796875 102.515625 52.382812 102.796875 C 56.671875 103.007812 56.53125 103.148438 57.304688 97.734375 C 58.148438 92.109375 58.078125 92.109375 61.945312 92.109375 C 65.460938 92.109375 65.53125 92.109375 65.109375 94.078125 C 64.476562 97.101562 61.171875 115.804688 61.171875 116.296875 C 61.171875 116.507812 61.804688 116.71875 62.578125 116.71875 C 63.632812 116.71875 63.984375 117.210938 63.984375 118.757812 C 63.984375 122.34375 59.273438 124.242188 56.320312 121.851562 C 54.703125 120.515625 54.5625 120.515625 52.101562 121.78125 C 49.148438 123.257812 48.234375 123.328125 45.28125 122.0625 Z M 54.070312 115.101562 C 54.421875 114.1875 54.84375 112.359375 54.984375 111.023438 C 55.125 109.054688 54.914062 108.632812 53.789062 108.421875 C 51.679688 108.210938 50.554688 109.195312 49.921875 112.148438 C 49.148438 115.523438 49.640625 116.71875 51.75 116.71875 C 52.875 116.71875 53.648438 116.15625 54.070312 115.101562 Z M 54.070312 115.101562 "/>
<path style=" stroke:none;fill-rule:nonzero;fill:rgb(24.705882%,32.156863%,32.941176%);fill-opacity:1;" d="M 72.070312 122.554688 C 71.296875 122.34375 69.890625 121.5 68.976562 120.726562 C 67.5 119.320312 67.359375 118.757812 67.710938 114.609375 C 67.921875 112.078125 68.484375 108.351562 68.90625 106.382812 L 69.75 102.65625 L 73.195312 102.65625 C 75.09375 102.65625 76.640625 102.796875 76.640625 102.9375 C 76.640625 103.078125 76.148438 105.820312 75.515625 108.984375 C 74.320312 115.3125 74.53125 116.71875 76.5 116.71875 C 79.3125 116.71875 80.507812 114.1875 80.507812 108.210938 L 80.507812 102.585938 L 87.539062 103.007812 L 87.75 106.382812 C 88.453125 117.070312 81.070312 124.734375 72.070312 122.554688 Z M 72.070312 122.554688 "/>
<path style=" stroke:none;fill-rule:nonzero;fill:rgb(24.705882%,32.156863%,32.941176%);fill-opacity:1;" d="M 60.679688 89.71875 C 45.28125 86.765625 31.78125 73.828125 28.054688 58.359375 C 25.664062 48.445312 27.5625 36.351562 32.835938 27.632812 C 37.335938 20.25 42.960938 14.976562 50.414062 11.320312 C 61.382812 5.835938 74.179688 5.625 85.851562 10.617188 C 87.75 11.460938 89.296875 12.234375 89.296875 12.445312 C 89.296875 12.585938 88.453125 14.203125 87.46875 15.890625 C 86.0625 18.28125 85.289062 18.914062 84.445312 18.5625 C 75.867188 14.976562 68.765625 13.992188 61.734375 15.398438 C 44.578125 18.984375 32.695312 36 35.15625 53.367188 C 36.070312 59.765625 39.09375 66.445312 42.960938 70.664062 C 45.5625 73.476562 45.84375 74.109375 45.140625 75.304688 C 44.367188 76.5 44.578125 76.710938 46.828125 77.695312 C 48.234375 78.257812 49.921875 78.75 50.554688 78.75 C 51.257812 78.75 54.140625 79.59375 57.023438 80.578125 C 64.054688 83.109375 72.84375 83.25 79.453125 80.859375 C 82.40625 79.804688 85.851562 79.242188 89.296875 79.171875 C 92.8125 79.101562 95.414062 78.609375 97.03125 77.765625 L 99.492188 76.5 L 96.679688 79.3125 C 88.101562 88.03125 73.617188 92.179688 60.679688 89.71875 Z M 60.679688 89.71875 "/>
<path style=" stroke:none;fill-rule:nonzero;fill:rgb(24.705882%,32.156863%,32.941176%);fill-opacity:1;" d="M 92.882812 71.507812 C 97.171875 67.21875 98.859375 66.023438 101.953125 65.109375 C 103.992188 64.476562 105.890625 64.195312 106.101562 64.40625 C 106.3125 64.617188 105.679688 66.234375 104.765625 68.0625 C 103.289062 70.804688 102.304688 71.71875 98.4375 73.546875 C 95.90625 74.742188 92.390625 76.007812 90.703125 76.289062 L 87.539062 76.78125 Z M 92.882812 71.507812 "/>
<path style=" stroke:none;fill-rule:nonzero;fill:rgb(24.705882%,32.156863%,32.941176%);fill-opacity:1;" d="M 99.84375 62.507812 C 99.914062 62.367188 100.476562 60.46875 101.25 58.359375 C 102.515625 54.632812 102.65625 54.492188 105.609375 54.070312 C 109.265625 53.507812 110.53125 53.929688 110.109375 55.476562 C 109.96875 56.109375 109.617188 57.585938 109.335938 58.78125 C 108.984375 60.820312 108.632812 61.03125 105.609375 61.382812 C 103.78125 61.59375 101.742188 62.015625 101.109375 62.226562 C 100.40625 62.507812 99.84375 62.648438 99.84375 62.507812 Z M 99.84375 62.507812 "/>
<path style=" stroke:none;fill-rule:nonzero;fill:rgb(24.705882%,32.156863%,32.941176%);fill-opacity:1;" d="M 102.65625 47.320312 C 102.65625 45.070312 102.445312 42.539062 102.234375 41.695312 C 101.8125 40.148438 102.023438 40.078125 105.679688 40.078125 C 110.25 40.078125 110.390625 40.359375 110.390625 46.828125 L 110.390625 51.328125 L 102.65625 51.328125 Z M 102.65625 47.320312 "/>
<path style=" stroke:none;fill-rule:nonzero;fill:rgb(24.705882%,32.156863%,32.941176%);fill-opacity:1;" d="M 95.695312 27.84375 L 94.148438 26.226562 L 96.117188 22.921875 C 97.171875 21.164062 98.296875 19.6875 98.578125 19.6875 C 99.703125 19.6875 105.609375 28.40625 104.976562 29.109375 C 104.695312 29.320312 102.867188 29.53125 100.898438 29.53125 C 98.015625 29.53125 96.960938 29.179688 95.695312 27.84375 Z M 95.695312 27.84375 "/>
<path style=" stroke:none;fill-rule:nonzero;fill:rgb(38.039216%,72.156863%,45.490196%);fill-opacity:1;" d="M 62.578125 79.734375 C 62.015625 79.523438 61.03125 79.171875 60.539062 79.03125 C 59.90625 78.820312 61.03125 77.90625 63.351562 76.851562 C 68.203125 74.460938 75.023438 74.25 78.75 76.21875 L 81.210938 77.554688 L 78.75 78.609375 C 76.289062 79.664062 64.546875 80.4375 62.578125 79.734375 Z M 62.578125 79.734375 "/>
<path style=" stroke:none;fill-rule:nonzero;fill:rgb(38.039216%,72.156863%,45.490196%);fill-opacity:1;" d="M 49.078125 72.914062 C 34.03125 60.679688 33.1875 38.671875 47.25 25.664062 C 56.53125 17.015625 69.398438 14.695312 80.578125 19.617188 L 83.742188 21.09375 L 81.914062 24.046875 C 76.78125 32.34375 76.429688 35.71875 80.296875 39.023438 C 82.265625 40.710938 82.828125 40.78125 90.703125 40.78125 L 99.070312 40.78125 L 99.492188 43.804688 C 99.773438 45.421875 99.84375 48.164062 99.703125 49.921875 C 99.492188 52.875 99.28125 53.15625 96.328125 54.703125 C 91.757812 56.953125 86.90625 56.8125 80.648438 54.070312 C 76.851562 52.382812 74.601562 51.890625 71.367188 51.890625 C 68.132812 51.890625 65.882812 52.382812 62.085938 54.070312 C 56.460938 56.53125 52.101562 56.882812 48.023438 55.195312 C 45.984375 54.351562 45.351562 54.28125 44.859375 54.984375 C 43.59375 57.023438 50.34375 59.484375 55.617188 58.851562 C 57.375 58.640625 60.679688 57.585938 63 56.53125 C 68.835938 53.859375 74.109375 53.859375 79.804688 56.53125 C 85.078125 58.992188 90.632812 59.554688 94.921875 58.078125 C 96.609375 57.515625 98.15625 57.164062 98.367188 57.304688 C 98.929688 57.9375 95.34375 64.757812 94.148438 65.460938 C 91.476562 66.867188 85.359375 66.164062 80.71875 63.984375 C 74.601562 61.101562 69.328125 61.101562 62.085938 63.984375 C 56.25 66.375 51.960938 66.65625 48.023438 65.039062 C 45.984375 64.195312 45.351562 64.125 44.859375 64.828125 C 43.875 66.445312 44.226562 66.726562 48.234375 67.921875 C 53.367188 69.398438 57.515625 68.976562 63.210938 66.445312 C 69.257812 63.703125 73.476562 63.703125 79.453125 66.375 C 81.984375 67.5 85.710938 68.625 87.75 68.765625 C 89.71875 68.90625 91.40625 69.328125 91.40625 69.679688 C 91.40625 70.453125 85.078125 75.234375 84.023438 75.234375 C 83.53125 75.234375 81.351562 74.390625 79.101562 73.40625 C 75.65625 71.789062 74.390625 71.578125 70.382812 71.929688 C 67.5 72.140625 64.335938 72.914062 61.875 74.109375 C 56.179688 76.78125 53.578125 76.570312 49.078125 72.914062 Z M 66.375 44.648438 C 67.21875 44.085938 68.695312 42.328125 69.539062 40.710938 C 71.578125 37.195312 71.367188 31.289062 69.1875 28.265625 C 67.429688 25.875 62.226562 23.203125 59.34375 23.203125 C 53.015625 23.203125 47.390625 29.601562 48.023438 36.070312 C 48.796875 44.789062 58.921875 49.5 66.375 44.648438 Z M 66.375 44.648438 "/>
<path style=" stroke:none;fill-rule:nonzero;fill:rgb(38.039216%,72.156863%,45.490196%);fill-opacity:1;" d="M 108.84375 74.742188 C 105.1875 74.460938 105.117188 74.390625 106.171875 72.351562 C 106.945312 71.015625 109.265625 70.664062 112.359375 71.4375 C 113.414062 71.71875 113.90625 72.421875 113.90625 73.546875 C 113.90625 74.53125 113.554688 75.164062 113.0625 75.09375 C 112.570312 75.023438 110.671875 74.882812 108.84375 74.742188 Z M 108.84375 74.742188 "/>
<path style=" stroke:none;fill-rule:nonzero;fill:rgb(38.039216%,72.156863%,45.490196%);fill-opacity:1;" d="M 110.25 65.53125 C 108.84375 65.25 108.632812 64.195312 109.6875 62.578125 C 110.179688 61.804688 110.53125 61.734375 111.09375 62.296875 C 112.289062 63.492188 111.65625 65.8125 110.25 65.53125 Z M 110.25 65.53125 "/>
<path style=" stroke:none;fill-rule:nonzero;fill:rgb(72.156863%,60%,38.039216%);fill-opacity:1;" d="M 55.617188 43.101562 C 53.015625 41.695312 50.625 37.96875 50.625 35.15625 C 50.625 30.796875 55.40625 26.015625 59.765625 26.015625 C 64.054688 26.015625 68.90625 30.796875 68.90625 35.015625 C 68.90625 37.617188 67.078125 41.273438 65.109375 42.539062 C 62.367188 44.367188 58.429688 44.578125 55.617188 43.101562 Z M 63.914062 38.953125 C 68.414062 33.257812 60.960938 26.15625 55.898438 31.289062 C 52.3125 34.875 54.703125 40.78125 59.765625 40.78125 C 61.875 40.78125 62.789062 40.359375 63.914062 38.953125 Z M 63.914062 38.953125 "/>
<path style=" stroke:none;fill-rule:nonzero;fill:rgb(72.156863%,60%,38.039216%);fill-opacity:1;" d="M 58.078125 37.757812 C 57.234375 37.125 56.882812 36.140625 57.09375 34.804688 C 57.304688 32.90625 57.585938 32.695312 59.765625 32.695312 C 61.945312 32.695312 62.226562 32.90625 62.4375 34.804688 C 62.648438 36.632812 61.242188 38.671875 59.765625 38.671875 C 59.554688 38.671875 58.78125 38.25 58.078125 37.757812 Z M 58.078125 37.757812 "/>
<path style=" stroke:none;fill-rule:nonzero;fill:rgb(72.156863%,60%,38.039216%);fill-opacity:1;" d="M 81.703125 36.84375 C 79.382812 35.226562 79.734375 32.0625 82.96875 26.71875 L 85.710938 22.21875 L 86.835938 24.820312 C 87.46875 26.296875 88.101562 28.40625 88.382812 29.601562 C 88.734375 31.429688 89.015625 31.640625 91.6875 31.640625 C 94.710938 31.640625 95.554688 32.414062 97.03125 36.28125 L 97.734375 37.96875 L 90.492188 37.96875 C 85.078125 37.96875 82.898438 37.6875 81.703125 36.84375 Z M 81.703125 36.84375 "/>
<path style=" stroke:none;fill-rule:nonzero;fill:rgb(72.156863%,60%,38.039216%);fill-opacity:1;" d="M 99.84375 35.367188 C 99.28125 33.890625 98.71875 32.484375 98.578125 32.203125 C 98.4375 31.851562 100.195312 31.640625 102.515625 31.640625 L 106.734375 31.640625 L 107.859375 34.453125 C 108.492188 36 108.984375 37.476562 108.984375 37.617188 C 108.984375 37.828125 107.15625 37.96875 104.90625 37.96875 C 100.828125 37.96875 100.828125 37.96875 99.84375 35.367188 Z M 99.84375 35.367188 "/>
<path style=" stroke:none;fill-rule:nonzero;fill:rgb(72.156863%,60%,38.039216%);fill-opacity:1;" d="M 89.71875 22.078125 L 87.679688 20.25 L 89.367188 17.15625 C 90.28125 15.46875 91.335938 14.0625 91.757812 14.0625 C 92.109375 14.132812 93.375 14.835938 94.5 15.75 L 96.46875 17.4375 L 94.570312 20.671875 C 93.515625 22.429688 92.460938 23.90625 92.25 23.90625 C 91.96875 23.90625 90.84375 23.0625 89.71875 22.078125 Z M 89.71875 22.078125 "/>
</g>
</svg>
