<!DOCTYPE svg PUBLIC "-//W3C//DTD SVG 20010904//EN" "http://www.w3.org/TR/2001/REC-SVG-20010904/DTD/svg10.dtd">
<svg version="1.0" xmlns="http://www.w3.org/2000/svg" width="200px" height="200px" viewBox="0 0 2000 2000" preserveAspectRatio="xMidYMid meet">
<g id="layer101" fill="#3f5254" stroke="none">
<path d="M1298 1880 c-36 -28 -38 -76 -5 -111 23 -24 23 -24 3 -51 -19 -27 -19 -29 0 -140 l19 -113 49 -3 49 -3 -6 48 c-3 26 -9 69 -13 95 -6 40 -4 49 11 54 34 14 49 -10 65 -102 l16 -89 38 -3 c66 -6 66 -9 35 161 -30 167 -40 196 -88 241 -25 24 -42 30 -88 34 -48 3 -63 0 -85 -18z m106 -66 c16 -6 42 -71 32 -81 -8 -8 -56 25 -63 43 -5 14 2 44 11 44 2 0 11 -3 20 -6z"/>
<path d="M460 1737 c-18 -9 -26 -22 -28 -48 -2 -29 26 -214 54 -351 5 -26 9 -28 55 -28 27 0 49 1 49 3 0 1 -14 79 -30 172 -16 94 -30 171 -30 173 0 1 9 2 20 2 16 0 20 7 20 34 0 29 -4 36 -31 45 -40 14 -48 14 -79 -2z"/>
<path d="M644 1736 c-47 -21 -54 -57 -33 -158 8 -37 22 -63 45 -86 32 -32 38 -34 89 -30 61 3 59 5 70 -72 12 -80 11 -80 66 -80 50 0 51 0 45 28 -9 43 -56 309 -56 316 0 3 9 6 20 6 15 0 20 7 20 29 0 51 -67 78 -109 44 -23 -19 -25 -19 -60 -1 -42 21 -55 22 -97 4z m125 -99 c5 -13 11 -39 13 -58 2 -28 -1 -34 -17 -37 -30 -3 -46 11 -55 53 -11 48 -4 65 26 65 16 0 27 -8 33 -23z"/>
<path d="M1025 1743 c-11 -3 -31 -15 -44 -26 -21 -20 -23 -28 -18 -87 3 -36 11 -89 17 -117 l12 -53 49 0 c27 0 49 2 49 4 0 2 -7 41 -16 86 -17 90 -14 110 14 110 40 0 57 -36 57 -121 l0 -80 50 3 50 3 3 48 c10 152 -95 261 -223 230z"/>
<path d="M863 1276 c-219 -42 -411 -226 -464 -446 -34 -141 -7 -313 68 -437 64 -105 144 -180 250 -232 156 -78 338 -81 504 -10 27 12 49 23 49 26 0 2 -12 25 -26 49 -20 34 -31 43 -43 38 -122 -51 -223 -65 -323 -45 -244 51 -413 293 -378 540 13 91 56 186 111 246 37 40 41 49 31 66 -11 17 -8 20 24 34 20 8 44 15 53 15 10 0 51 12 92 26 100 36 225 38 319 4 42 -15 91 -23 140 -24 50 -1 87 -8 110 -20 l35 -18 -40 40 c-122 124 -328 183 -512 148z"/>
<path d="M1321 1017 c61 -61 85 -78 129 -91 29 -9 56 -13 59 -10 3 3 -6 26 -19 52 -21 39 -35 52 -90 78 -36 17 -86 35 -110 39 l-45 7 76 -75z"/>
<path d="M1420 889 c1 -2 9 -29 20 -59 18 -53 20 -55 62 -61 52 -8 70 -2 64 20 -2 9 -7 30 -11 47 -5 29 -10 32 -53 37 -26 3 -55 9 -64 12 -10 4 -18 6 -18 4z"/>
<path d="M1460 673 c0 -32 -3 -68 -6 -80 -6 -22 -3 -23 49 -23 65 0 67 4 67 96 l0 64 -55 0 -55 0 0 -57z"/>
<path d="M1361 396 l-22 -23 28 -47 c15 -25 31 -46 35 -46 16 0 100 124 91 134 -4 3 -30 6 -58 6 -41 0 -56 -5 -74 -24z"/>
</g>
<g id="layer102" fill="#61b874" stroke="none">
<path d="M890 1134 c-8 -3 -22 -8 -29 -10 -9 -3 7 -16 40 -31 69 -34 166 -37 219 -9 l35 19 -35 15 c-35 15 -202 26 -230 16z"/>
<path d="M698 1037 c-214 -174 -226 -487 -26 -672 132 -123 315 -156 474 -86 l45 21 -26 42 c-73 118 -78 166 -23 213 28 24 36 25 148 25 l119 0 6 43 c4 23 5 62 3 87 -3 42 -6 46 -48 68 -65 32 -134 30 -223 -9 -54 -24 -86 -31 -132 -31 -46 0 -78 7 -132 31 -80 35 -142 40 -200 16 -29 -12 -38 -13 -45 -3 -18 29 78 64 153 55 25 -3 72 -18 105 -33 83 -38 158 -38 239 0 75 35 154 43 215 22 24 -8 46 -13 49 -11 8 9 -43 106 -60 116 -38 20 -125 10 -191 -21 -87 -41 -162 -41 -265 0 -83 34 -144 38 -200 15 -29 -12 -38 -13 -45 -3 -14 23 -9 27 48 44 73 21 132 15 213 -21 86 -39 146 -39 231 -1 36 16 89 32 118 34 28 2 52 8 52 13 0 11 -90 79 -105 79 -7 0 -38 -12 -70 -26 -49 -23 -67 -26 -124 -21 -41 3 -86 14 -121 31 -81 38 -118 35 -182 -17z m246 -402 c12 -8 33 -33 45 -56 29 -50 26 -134 -5 -177 -25 -34 -99 -72 -140 -72 -90 0 -170 91 -161 183 11 124 155 191 261 122z"/>
<path d="M1548 1063 c-52 -4 -53 -5 -38 -34 11 -19 44 -24 88 -13 15 4 22 14 22 30 0 14 -5 23 -12 22 -7 -1 -34 -3 -60 -5z"/>
<path d="M1568 932 c-20 -4 -23 -19 -8 -42 7 -11 12 -12 20 -4 17 17 8 50 -12 46z"/>
</g>
<g id="layer103" fill="#b89961" stroke="none">
<path d="M791 613 c-37 -20 -71 -73 -71 -113 0 -62 68 -130 130 -130 61 0 130 68 130 128 0 37 -26 89 -54 107 -39 26 -95 29 -135 8z m118 -59 c64 -81 -42 -182 -114 -109 -51 51 -17 135 55 135 30 0 43 -6 59 -26z"/>
<path d="M826 537 c-12 -9 -17 -23 -14 -42 3 -27 7 -30 38 -30 31 0 35 3 38 30 3 26 -17 55 -38 55 -3 0 -14 -6 -24 -13z"/>
<path d="M1162 524 c-33 -23 -28 -68 18 -144 l39 -64 16 37 c9 21 18 51 22 68 5 26 9 29 47 29 43 0 55 11 76 66 l10 24 -103 0 c-77 0 -108 -4 -125 -16z"/>
<path d="M1420 503 c-8 -21 -16 -41 -18 -45 -2 -5 23 -8 56 -8 l60 0 16 40 c9 22 16 43 16 45 0 3 -26 5 -58 5 -58 0 -58 0 -72 -37z"/>
<path d="M1276 314 l-29 -26 24 -44 c13 -24 28 -44 34 -44 5 1 23 11 39 24 l28 24 -27 46 c-15 25 -30 46 -33 46 -4 0 -20 -12 -36 -26z"/>
</g>


</svg>